<?xml version="1.0" standalone="no"?>
<!DOCTYPE svg PUBLIC "-//W3C//DTD SVG 20010904//EN"
 "http://www.w3.org/TR/2001/REC-SVG-20010904/DTD/svg10.dtd">
<svg version="1.0" xmlns="http://www.w3.org/2000/svg"
 width="527.000000pt" height="527.000000pt" viewBox="0 0 527.000000 527.000000"
 preserveAspectRatio="xMidYMid meet">
<metadata>
Created by potrace 1.11, written by Peter Selinger 2001-2013
</metadata>
<g transform="translate(0.000000,527.000000) scale(0.100000,-0.100000)"
fill="#000000" stroke="none">
<path d="M2444 4890 c-6 -6 -38 -11 -71 -13 -34 -1 -59 -5 -56 -9 2 -5 -8 -9
-24 -10 -46 -2 -51 -3 -59 -11 -12 -12 -36 -8 -28 5 4 7 3 8 -5 4 -6 -4 -9
-12 -5 -17 3 -6 0 -9 -7 -8 -8 2 -32 -5 -53 -14 -22 -10 -46 -15 -53 -12 -9 3
-11 0 -7 -7 5 -8 2 -9 -9 -5 -10 3 -17 3 -17 -2 0 -8 -49 -25 -59 -21 -2 1 -7
-3 -10 -8 -11 -17 -71 -43 -83 -36 -7 4 -8 3 -4 -4 8 -13 -67 -55 -79 -44 -5
4 -4 1 0 -7 6 -11 4 -13 -8 -8 -10 4 -16 2 -14 -4 1 -6 -7 -16 -18 -22 -11 -7
-22 -14 -25 -17 -3 -3 -27 -23 -55 -44 -27 -22 -58 -48 -68 -58 -10 -10 -22
-16 -27 -13 -6 4 -7 -2 -3 -12 3 -10 3 -15 -1 -12 -8 7 -84 -63 -79 -73 2 -3
-10 -17 -26 -31 -17 -14 -28 -27 -25 -30 3 -2 -8 -15 -23 -27 -15 -12 -26 -23
-23 -25 3 -2 -6 -16 -20 -32 -13 -15 -24 -30 -23 -33 2 -10 -24 -40 -30 -34
-3 3 -3 -3 -1 -13 3 -11 -2 -25 -10 -32 -9 -8 -16 -20 -16 -27 0 -8 -4 -14 -9
-14 -5 0 -12 -13 -16 -30 -4 -16 -11 -30 -16 -30 -5 0 -8 -3 -7 -7 4 -17 -26
-82 -35 -76 -6 3 -7 1 -4 -4 6 -9 -9 -67 -30 -123 -8 -20 -15 -53 -30 -130 -2
-14 -8 -26 -14 -28 -5 -2 -9 -8 -9 -13 0 -6 4 -8 9 -5 4 3 6 -6 3 -19 -4 -21
-8 -24 -31 -18 -14 3 -27 9 -29 13 -1 4 -14 5 -27 2 -14 -2 -25 0 -25 5 0 6
-12 8 -26 5 -20 -4 -25 -2 -19 8 5 7 4 11 -1 8 -5 -4 -63 -7 -129 -9 -66 -1
-127 -6 -136 -10 -9 -5 -31 -10 -48 -11 -17 -1 -31 -6 -31 -11 0 -4 -5 -5 -10
-2 -6 4 -17 1 -25 -5 -8 -7 -15 -9 -15 -5 0 4 -7 2 -15 -5 -8 -7 -15 -9 -15
-4 0 5 -4 5 -8 -1 -4 -5 -40 -27 -81 -49 -77 -40 -85 -45 -126 -84 -14 -13
-25 -19 -25 -15 0 4 -5 0 -11 -10 -6 -9 -15 -14 -21 -11 -6 4 -8 3 -4 -4 3 -6
-6 -20 -20 -31 -15 -12 -23 -21 -18 -21 5 0 -7 -14 -26 -31 -19 -17 -28 -28
-20 -24 9 4 9 1 -2 -8 -10 -8 -18 -19 -18 -26 0 -6 -3 -11 -8 -11 -4 0 -23
-34 -42 -75 -24 -51 -39 -73 -49 -70 -11 4 -11 2 -3 -8 7 -8 9 -16 6 -19 -3
-4 -8 -21 -11 -40 -2 -18 -8 -37 -13 -42 -5 -5 -6 -15 -3 -24 4 -9 2 -13 -3
-9 -6 3 -9 -10 -8 -34 1 -22 -1 -41 -5 -43 -15 -10 2 -244 21 -280 8 -14 7
-17 -4 -10 -10 6 -11 5 -2 -7 6 -8 17 -34 24 -59 7 -25 18 -51 23 -57 5 -7 7
-20 3 -28 -3 -9 -2 -14 3 -11 8 5 36 -41 42 -69 1 -5 9 -15 17 -21 9 -7 12
-16 7 -24 -5 -8 -4 -11 3 -6 12 7 38 -32 33 -49 -1 -5 0 -7 3 -4 12 11 115
-102 109 -119 -4 -15 -3 -15 6 -2 10 13 14 11 32 -10 12 -14 24 -24 28 -23 3
1 15 -6 26 -15 11 -10 22 -17 25 -17 6 0 123 -58 130 -65 3 -3 11 -5 18 -6 28
-2 33 -4 28 -12 -3 -5 8 -7 23 -4 16 2 34 -2 41 -10 8 -8 27 -12 48 -10 27 4
33 2 26 -9 -7 -12 -5 -12 9 0 11 9 21 10 30 4 6 -5 48 -8 92 -7 50 2 85 -1 94
-9 9 -7 12 -8 8 -1 -9 16 293 16 312 0 10 -7 13 -7 8 0 -9 16 453 17 472 1 10
-8 12 -8 8 -1 -9 16 452 16 472 0 10 -7 13 -7 8 0 -4 7 8 11 34 12 28 1 38 -2
33 -10 -5 -7 -3 -8 7 -2 23 14 81 15 73 1 -5 -9 -4 -9 7 1 16 15 33 16 23 0
-5 -7 -3 -8 7 -3 7 5 25 10 38 11 20 2 22 1 11 -6 -8 -5 -11 -10 -6 -10 11 0
-14 -30 -26 -30 -5 0 -6 5 -3 10 3 6 1 10 -5 10 -7 0 -9 -7 -6 -16 5 -14 -46
-69 -65 -69 -4 0 -11 -4 -16 -9 -5 -5 -3 -6 5 -2 6 4 12 4 12 0 0 -10 -57 -63
-62 -58 -3 2 -11 -7 -18 -21 -8 -14 -19 -24 -26 -21 -8 3 -11 -1 -7 -10 3 -7
0 -15 -6 -15 -26 -3 -30 -4 -38 -13 -5 -5 -3 -6 5 -2 6 4 12 2 12 -3 0 -10
-14 -15 -32 -12 -4 0 -4 -7 -1 -16 5 -12 2 -15 -10 -10 -11 4 -14 2 -10 -9 6
-17 -8 -18 -27 -2 -12 11 -12 10 -2 -3 10 -13 8 -19 -6 -33 -10 -9 -22 -13
-26 -9 -4 4 -4 0 0 -10 6 -16 -10 -25 -19 -9 -2 4 -2 1 0 -6 4 -18 -24 -45
-38 -36 -7 4 -10 3 -6 -2 9 -15 -60 -87 -75 -78 -7 4 -10 4 -6 -1 10 -10 -11
-37 -23 -29 -5 3 -6 -3 -2 -12 3 -10 2 -15 -3 -12 -5 3 -17 -3 -26 -14 -10
-10 -15 -18 -11 -18 4 0 -3 -9 -15 -20 -12 -11 -26 -20 -32 -20 -6 0 -9 -3 -7
-8 2 -4 -7 -17 -20 -29 -21 -21 -28 -21 -24 0 1 5 -3 6 -9 2 -6 -4 -8 -16 -4
-27 5 -16 3 -20 -8 -15 -11 4 -15 -2 -14 -21 1 -31 28 -40 104 -36 36 2 52 0
52 -9 0 -7 3 -8 8 -2 9 13 132 17 132 4 0 -5 5 -9 11 -9 5 0 8 4 4 9 -7 12 45
9 64 -3 9 -6 12 -5 7 2 -10 17 47 10 62 -8 11 -13 11 -13 7 0 -5 13 9 15 87
16 57 1 96 -3 100 -10 5 -6 8 -7 8 -1 0 6 29 11 65 12 37 2 65 -2 65 -7 0 -6
5 -10 11 -10 5 0 7 5 4 10 -7 12 23 9 44 -4 10 -6 12 -5 7 3 -5 8 6 10 38 9
25 -2 46 -6 46 -9 0 -13 -57 -59 -65 -52 -4 5 -5 3 -2 -3 8 -14 -17 -37 -27
-26 -4 4 -6 0 -4 -8 2 -9 -3 -14 -12 -12 -8 2 -12 1 -8 -3 9 -9 -23 -45 -34
-39 -5 3 -7 1 -6 -3 5 -15 -75 -94 -89 -89 -7 3 -10 -1 -6 -10 4 -12 -7 -19
-29 -15 -4 0 -4 -7 -1 -16 4 -9 2 -14 -3 -11 -5 3 -15 0 -22 -8 -7 -8 -10 -14
-8 -14 3 0 -31 -36 -76 -80 -45 -43 -85 -77 -90 -74 -5 3 -7 0 -6 -8 2 -7 -3
-12 -10 -10 -8 1 -11 -2 -8 -7 3 -5 -10 -23 -29 -40 -20 -17 -32 -31 -28 -31
4 0 0 -5 -9 -11 -10 -5 -20 -9 -24 -9 -4 1 -12 -9 -19 -22 -6 -13 -17 -22 -23
-21 -7 2 -11 0 -10 -5 4 -11 -35 -52 -49 -52 -7 0 -12 -6 -10 -13 1 -6 -4 -11
-10 -10 -7 2 -12 -1 -10 -6 1 -5 -13 -23 -30 -40 -33 -32 -42 -51 -22 -51 5 0
7 -5 3 -11 -4 -8 0 -8 15 0 12 7 27 9 33 5 7 -4 8 -3 4 4 -8 13 153 174 166
166 4 -3 8 -2 7 3 -4 21 3 32 24 39 12 5 26 7 30 6 5 -1 6 2 2 8 -3 6 -12 7
-18 4 -9 -5 -9 -3 0 6 10 11 15 11 30 0 15 -12 16 -12 6 0 -16 18 -16 30 0 30
7 0 17 10 22 23 6 13 17 21 29 19 11 -2 16 1 14 10 -3 7 8 22 23 34 16 11 26
24 22 27 -3 4 1 7 11 7 9 0 21 11 28 25 6 13 15 22 19 19 5 -3 9 0 9 7 0 8 4
8 13 1 9 -8 12 -4 13 14 2 32 22 54 41 47 11 -4 14 -2 9 5 -4 7 -2 12 3 12 6
0 11 7 11 15 0 13 4 14 23 4 20 -11 21 -11 8 4 -9 12 -10 17 -2 17 7 0 9 5 5
12 -4 7 -3 8 5 4 6 -4 14 0 17 8 3 9 10 13 15 10 5 -3 9 2 9 11 0 11 5 15 14
12 11 -4 13 -1 9 10 -5 13 -2 15 16 10 18 -4 20 -3 10 9 -10 13 -6 18 14 15 6
-1 11 14 8 31 0 4 8 5 19 3 14 -3 17 1 13 12 -4 9 -2 14 3 11 5 -3 17 3 27 14
9 10 15 18 12 18 -3 0 0 6 7 14 7 8 16 12 19 10 3 -2 12 8 19 21 7 13 17 22
22 19 5 -3 7 8 6 25 -2 25 -5 28 -17 18 -12 -10 -13 -9 -6 2 6 11 2 13 -19 7
-17 -4 -25 -3 -22 3 7 11 -34 2 -51 -11 -9 -7 -11 -4 -8 14 4 19 2 21 -8 8
-13 -16 -35 -19 -54 -7 -7 5 -13 5 -13 0 0 -4 -63 -8 -139 -8 -77 0 -137 3
-135 7 8 12 -30 -4 -38 -16 -5 -8 -8 -7 -8 1 0 6 -16 12 -35 12 -19 1 -41 2
-47 3 -7 0 -20 -1 -28 -3 -9 -2 -14 2 -12 11 2 13 1 13 -10 0 -10 -12 -38 -15
-130 -15 -72 0 -118 4 -118 10 0 6 -5 3 -10 -5 -8 -13 -10 -13 -10 1 0 9 7 20
16 23 8 3 12 10 9 16 -3 5 -2 10 4 10 17 0 61 46 53 56 -4 4 2 2 12 -6 11 -8
17 -10 14 -5 -8 14 7 50 21 50 6 0 10 4 9 8 -4 13 31 29 45 21 7 -5 6 0 -3 11
-9 11 -10 16 -2 11 7 -4 12 -2 12 4 0 7 7 9 16 6 14 -6 15 -4 4 9 -11 13 -11
16 1 13 8 -2 13 3 11 11 -2 8 3 11 12 8 9 -4 15 -1 13 6 -1 7 4 11 11 9 8 -1
11 2 7 8 -3 5 -1 10 5 10 6 0 8 5 5 10 -4 6 -3 10 2 9 21 -4 33 2 33 16 0 8 5
15 11 15 5 0 8 4 4 9 -6 10 13 26 30 26 6 0 10 7 10 15 0 8 7 15 15 15 8 1 14
6 12 13 -1 7 3 11 10 10 7 -2 12 2 13 9 0 6 4 15 9 20 5 5 6 3 2 -4 -4 -7 -2
-13 3 -13 6 0 11 7 11 16 0 11 5 14 16 10 15 -6 15 -4 3 11 -9 11 -10 14 -1 9
6 -4 12 -2 12 3 0 6 8 11 18 11 14 0 15 2 2 10 -13 9 -13 10 0 11 8 1 18 1 23
0 4 0 6 3 5 7 -2 5 13 23 32 41 19 19 28 30 20 26 -9 -5 -12 -4 -7 1 5 5 14 9
20 9 7 1 11 7 9 15 -3 11 0 11 14 -1 10 -8 15 -9 11 -2 -8 13 40 70 55 65 6
-2 8 4 5 12 -4 10 0 14 14 11 10 -2 19 0 19 4 0 4 13 8 30 8 16 0 27 -5 23
-10 -4 -6 -1 -7 8 -1 22 14 142 15 151 1 4 -7 8 -7 8 -2 0 6 14 12 31 13 22 2
28 -1 23 -10 -6 -10 -4 -10 7 -2 21 16 478 17 498 1 9 -7 12 -8 8 -1 -4 8 15
11 63 11 48 0 68 -3 63 -11 -3 -6 0 -5 8 2 7 6 29 12 49 12 20 0 42 -6 49 -12
8 -7 11 -8 8 -2 -11 19 201 13 214 -6 9 -12 10 -12 5 4 -5 14 -2 17 10 12 8
-3 31 -6 50 -6 24 0 33 -4 28 -12 -5 -7 -3 -8 7 -2 23 14 101 15 92 1 -4 -8
-1 -7 10 1 9 8 33 13 54 12 21 -1 40 -1 43 0 22 8 118 22 158 23 12 1 22 5 22
10 0 5 9 7 20 4 10 -3 20 -1 22 4 2 5 12 10 23 12 11 1 26 6 33 10 6 5 17 5
22 2 6 -3 10 -2 10 4 0 9 68 37 83 33 4 -1 7 3 7 9 0 5 5 7 10 4 6 -3 10 -2
10 3 0 4 17 16 37 26 43 21 145 86 154 99 4 5 12 6 18 3 6 -4 10 -4 9 1 -4 10
141 151 147 144 3 -2 5 1 5 8 0 6 5 17 10 24 6 7 20 24 31 40 11 15 25 24 31
21 7 -4 8 -2 4 4 -9 16 25 73 38 65 6 -3 8 -3 4 2 -9 10 19 65 33 65 6 0 7 5
4 10 -4 6 1 23 11 38 10 15 19 32 19 37 3 31 19 64 28 58 6 -3 7 -1 3 5 -8 13
3 64 13 57 4 -2 5 10 3 28 -5 30 -4 31 14 17 17 -14 18 -14 6 1 -10 13 -10 30
-2 75 10 61 13 254 4 313 -4 25 -2 32 8 26 7 -3 6 0 -4 7 -9 8 -18 33 -20 58
-1 25 -7 48 -12 51 -5 4 -9 20 -10 37 0 17 -4 28 -8 25 -5 -2 -8 2 -8 10 0 7
-10 33 -22 58 -11 24 -21 50 -21 57 0 6 -4 12 -9 12 -4 0 -8 5 -8 11 0 6 -9
24 -21 40 -18 25 -19 32 -7 47 12 15 11 16 -4 4 -14 -11 -18 -10 -29 10 -6 13
-20 33 -31 45 -11 12 -17 26 -13 33 3 6 2 9 -3 8 -16 -5 -100 94 -95 111 3 11
2 12 -4 4 -6 -9 -17 -5 -41 15 -18 15 -32 33 -32 40 0 7 -4 11 -9 8 -12 -8
-52 29 -43 39 4 5 1 5 -7 0 -7 -4 -16 -3 -20 2 -7 10 -111 72 -163 96 -20 10
-40 22 -43 27 -3 5 -12 7 -20 3 -8 -3 -15 -1 -15 4 0 5 -6 10 -12 11 -7 0 -59
14 -115 30 -57 16 -105 27 -108 24 -3 -3 -5 -1 -5 4 0 10 -20 11 -208 16 -68
2 -125 0 -127 -3 -2 -3 -23 -6 -47 -7 -39 -2 -45 1 -66 34 -12 20 -19 40 -16
46 4 7 2 8 -5 4 -6 -4 -14 0 -18 11 -4 10 -16 26 -28 35 -11 10 -17 17 -14 18
3 0 -14 21 -38 46 -23 26 -40 51 -36 57 3 5 2 7 -4 4 -13 -8 -66 47 -56 58 5
4 3 5 -4 2 -6 -4 -17 -1 -25 6 -7 7 -39 34 -70 59 -31 25 -53 50 -50 54 4 4 2
4 -4 1 -14 -8 -66 27 -57 38 5 4 2 5 -5 1 -7 -5 -21 -2 -30 6 -9 8 -34 23 -54
33 -21 11 -38 26 -38 35 0 11 -2 12 -8 3 -6 -9 -20 -7 -55 11 -26 12 -44 26
-40 30 5 4 1 7 -7 6 -35 -5 -61 0 -54 12 4 6 3 8 -4 4 -6 -3 -28 0 -49 8 -21
8 -52 17 -70 20 -17 2 -36 7 -42 10 -6 4 -25 9 -43 11 -18 3 -42 7 -53 9 -11
3 -35 5 -53 5 -24 1 -31 5 -26 14 6 9 4 9 -7 1 -8 -6 -23 -10 -34 -8 -39 8
-181 8 -193 0 -7 -4 -12 -2 -12 5 0 8 -4 9 -13 0 -9 -7 -17 -7 -23 -1 -7 7
-14 6 -20 0z"/>
<path d="M3995 1961 c-3 -5 -2 -12 3 -15 5 -3 9 1 9 9 0 17 -3 19 -12 6z"/>
<path d="M2245 1630 c-3 -5 -1 -10 4 -10 6 0 11 5 11 10 0 6 -2 10 -4 10 -3 0
-8 -4 -11 -10z"/>
<path d="M2676 1188 c3 -4 9 -8 15 -8 5 0 9 4 9 8 0 5 -7 9 -15 9 -8 0 -12 -4
-9 -9z"/>
<path d="M2485 901 c-3 -5 -2 -12 3 -15 5 -3 9 1 9 9 0 17 -3 19 -12 6z"/>
</g>
</svg>
